<svg class="icon_menu" version="1.0" xmlns="http://www.w3.org/2000/svg" width="529.000000pt" height="573.000000pt" viewBox="0 0 529.000000 573.000000" preserveAspectRatio="xMidYMid meet">
<g transform="translate(0.000000,573.000000) scale(0.100000,-0.100000)" fill="currentcolor" stroke="none">
<path d="M1920 5684 c-36 -18 -84 -54 -108 -78 -43 -45 -92 -135 -92 -171 0
-11 -3 -30 -6 -42 -6 -21 -9 -22 -242 -25 -272 -3 -285 -7 -322 -82 -20 -43
-21 -55 -18 -315 3 -254 4 -271 24 -298 11 -15 36 -36 55 -45 32 -17 95 -18
894 -18 799 0 862 1 894 18 19 9 44 30 55 45 20 27 21 41 21 316 0 397 19 376
-338 376 l-237 0 -6 35 c-22 130 -96 229 -219 288 -61 30 -70 32 -177 31 -108
0 -116 -2 -178 -35z"/>
<path d="M165 5329 c-58 -30 -103 -77 -131 -133 l-24 -50 0 -2476 0 -2476 24
-50 c24 -49 55 -83 113 -122 l31 -22 1929 0 1928 0 49 38 c27 20 63 60 80 87
l31 50 3 593 c2 353 -1 592 -6 592 -5 0 -57 -48 -116 -106 l-106 -106 0 -451
c0 -249 -4 -458 -8 -465 -7 -10 -386 -12 -1863 -10 l-1854 3 0 2445 0 2445
275 3 275 2 0 -272 c0 -312 4 -338 71 -428 47 -64 135 -123 207 -140 61 -14
2002 -13 2064 1 68 15 161 76 203 132 20 26 47 78 59 115 20 63 22 82 19 330
l-3 262 272 0 273 0 5 -22 c3 -13 4 -438 3 -946 -2 -620 0 -922 7 -922 6 0 59
48 118 108 l107 107 0 835 c0 459 -4 851 -9 872 -12 53 -59 117 -116 157 l-49
36 -433 3 c-410 2 -433 2 -433 -15 1 -10 7 -47 15 -83 22 -99 21 -614 -1 -669
-33 -82 55 -76 -1065 -76 -1088 0 -1031 -3 -1064 59 -15 28 -16 67 -12 371 3
187 8 357 12 378 l7 37 -424 0 c-411 0 -424 -1 -463 -21z"/>
<path d="M2429 3074 l-614 -614 -327 327 -328 328 -142 -143 -143 -142 465
-465 c256 -256 471 -464 478 -463 13 3 1512 1498 1512 1509 0 7 -256 261 -273
271 -9 4 -218 -198 -628 -608z"/>
<path d="M4605 3531 c-16 -4 -46 -16 -65 -26 -38 -19 -320 -292 -320 -310 0
-5 164 -174 365 -375 l366 -365 147 150 c81 83 157 170 170 193 25 51 29 116
7 158 -8 16 -135 149 -282 296 -193 191 -276 268 -298 273 -55 12 -60 13 -90
6z"/>
<path d="M3218 2203 l-877 -878 -50 -150 c-52 -162 -153 -479 -178 -560 -8
-27 -20 -63 -27 -80 -8 -16 -24 -67 -37 -113 l-23 -82 21 -28 c17 -23 27 -27
64 -26 24 1 80 14 124 28 44 15 166 55 270 88 105 33 228 72 275 88 47 16 132
43 190 60 l105 32 884 882 883 883 -366 366 c-202 202 -370 367 -374 367 -4 0
-402 -395 -884 -877z m840 581 c55 -38 68 -24 -663 -757 -536 -536 -691 -687
-710 -687 -26 0 -65 31 -65 52 0 15 1391 1408 1405 1408 6 0 21 -7 33 -16z
m-1409 -1893 l209 -209 -132 -42 c-72 -23 -151 -48 -176 -56 l-44 -14 -92 91
-91 91 13 42 c8 22 25 75 38 116 14 41 32 101 41 133 9 31 18 57 21 57 2 0 98
-94 213 -209z"/>
</g>
</svg>
